<svg id="Layer_1" data-name="Layer 1" xmlns="http://www.w3.org/2000/svg" viewBox="0 0 287.92 351.6"><defs><style>.cls-1{fill:#fff;}.cls-2{fill:#e51b23;}.cls-3{fill-rule:evenodd;}</style></defs><polygon class="cls-1" points="40.62 74.62 40.62 58.66 47.86 43.65 53.18 35.86 61.89 28.52 75.48 26.16 264.17 6.74 273.63 10.15 280.72 18.04 284.92 30.12 284.92 47.98 284.92 102.09 283.08 262.84 282.29 271.77 279.67 276.23 275.46 283.85 270.21 290.68 262.86 295.41 256.81 297.77 74.26 349.52 67.96 349.52 59.81 346.1 53.25 341.9 49.57 334.55 47.21 324.83 40.62 74.62"/><path d="M120.28,144.94l69.89,13.14c0,.18-.1.36-.16.55s-.12.36-.19.54-.15.36-.23.55-.17.36-.26.53L120.21,293.63c-.23.45-.45.85-.67,1.2a10,10,0,0,1-.64.91,4.21,4.21,0,0,1-.59.6,1.3,1.3,0,0,1-.53.28.39.39,0,0,1-.15,0l-.15,0a.31.31,0,0,1-.13-.06.38.38,0,0,1-.13-.09,1.4,1.4,0,0,1-.29-.47,3,3,0,0,1-.21-.73,8.54,8.54,0,0,1-.11-1c0-.36,0-.77,0-1.21Z" transform="translate(-6.57)"/><path class="cls-2" d="M110,94.12a4.48,4.48,0,0,1,.64-.05,3.8,3.8,0,0,1,.67,0,4.55,4.55,0,0,1,.69.12,7,7,0,0,1,.7.22l111.42,42.2a7.21,7.21,0,0,1,2.45,1.62,10.59,10.59,0,0,1,2,2.61,13.49,13.49,0,0,1,1.27,3.24,12.94,12.94,0,0,1,.37,3.51l-.35,9.31a9.89,9.89,0,0,1-.47,2.69,8.05,8.05,0,0,1-1.08,2.2,6.36,6.36,0,0,1-1.58,1.57,5.08,5.08,0,0,1-2,.82l-.47.07-.47,0-.49,0-.49-.07-32.31-6.07-70.19-13.2-.33-.06-8.14-1.53a7.07,7.07,0,0,1-2.81-1.24,9.5,9.5,0,0,1-2.28-2.36,11.67,11.67,0,0,1-2-6.74l.74-32.16a9.84,9.84,0,0,1,.38-2.58,7.18,7.18,0,0,1,1-2,5.29,5.29,0,0,1,1.41-1.42A4.63,4.63,0,0,1,110,94.12Z" transform="translate(-6.57)"/><path d="M128.91,65.48l.18,0,.2,0,.2,0,.21,0L243.21,54.52a5.28,5.28,0,0,1,2.64.41,5.75,5.75,0,0,1,2.1,1.62,7.56,7.56,0,0,1,1.36,2.56,9.7,9.7,0,0,1,.4,3.25l-1.86,46.78a9.64,9.64,0,0,1-.35,2.3,6.66,6.66,0,0,1-.82,1.85,4.92,4.92,0,0,1-1.21,1.31,3.84,3.84,0,0,1-1.56.65,2.88,2.88,0,0,1-.59.06,4,4,0,0,1-.6,0l-.62-.12a5.79,5.79,0,0,1-.62-.22L129.07,68.57a12.44,12.44,0,0,1-1.25-.6,5.46,5.46,0,0,1-.8-.55,1.87,1.87,0,0,1-.41-.48.56.56,0,0,1-.08-.38.51.51,0,0,1,.09-.19,1,1,0,0,1,.33-.29,3,3,0,0,1,.71-.32A8.26,8.26,0,0,1,128.91,65.48Z" transform="translate(-6.57)"/><path class="cls-3" d="M227.55.06a24.05,24.05,0,0,1,2.73,0l1.23.12c3.76.44,7.52.88,11.28,1.29,3,.33,6,.6,9,.94,3.48.39,7,.88,10.45,1.25,3,.33,6.08.45,9.11.84a33.54,33.54,0,0,1,5.49,1.25,21.22,21.22,0,0,1,11.41,8.86c4.73,6.94,6.35,14.75,6.28,23,0,5.07-.14,10.14-.2,15.21q-.11,8.94-.19,17.87-.09,10.57-.18,21.16c-.05,5.29-.13,10.57-.18,15.85-.07,6.39-.12,12.77-.19,19.15l-.18,17.78-.18,18.87q-.09,9.08-.19,18.15l-.18,19-.18,17.87q-.11,9.48-.19,19c-.06,7.21-.09,14.42-.2,21.62a48.53,48.53,0,0,1-.44,6.39,46.42,46.42,0,0,1-10.38,23.62,28.84,28.84,0,0,1-14.24,9.69l-51.82,14.72-48.91,13.91Q125.88,339,85.29,350.51a24.17,24.17,0,0,1-17.86-1.37c-2.7-1.34-5.48-2.53-8.24-3.78-5.64-2.55-11.3-5.07-16.94-7.63-3.76-1.71-7.48-3.5-11.26-5.16a23.35,23.35,0,0,1-9.09-7.11,31.69,31.69,0,0,1-6.32-17.21c-.24-2.78-8.93-242.48-9-245.25V61.09A45.94,45.94,0,0,1,7.81,49.64a44.58,44.58,0,0,1,6.27-13.89,36.37,36.37,0,0,1,7.72-8.83,47.4,47.4,0,0,1,6.61-4.64A32,32,0,0,1,41.1,19.1c1.39-.11,2.77-.23,4.15-.38C47.32,18.5,223.91.41,226.08.2,226.74.13,226.82.14,227.55.06ZM57.62,310.77c.27,5.27.46,10.54.88,15.79A29.54,29.54,0,0,0,59.84,333c1.22,3.95,3.8,7,6.82,9.75a13.66,13.66,0,0,0,5.73,3.07,23.8,23.8,0,0,0,12.67-.3l34.13-9.68,36.14-10.28,37.45-10.66,37.36-10.61L259.22,296a85.66,85.66,0,0,0,8.59-2.52c6-2.41,10.07-7.09,13.44-12.4,4.31-6.8,5.89-14.37,6-22.31.09-6.11.13-12.21.19-18.32l.18-18.59q.09-9.25.19-18.5l.18-18.5.18-18.51q.09-9.15.19-18.31l.18-18.69.18-18.32q.09-9.33.19-18.68L289.1,74q.09-10.84.18-21.71c0-3.36,0-6.72.06-10.08a72,72,0,0,0-.55-13.2c-1.05-6.3-3.61-11.73-8.51-15.93a12.2,12.2,0,0,0-5.41-2.85,21.22,21.22,0,0,0-6.6-.36c-2.6.26-5.2.51-7.8.79-2.3.24-4.59.49-6.89.75l-7.69.87-5.63.6c-2.53.29-5.06.59-7.6.87l-7.43.81-7.61.84-5.8.63-7.52.84-6,.66-7.52.8c-1.88.2-3.75.39-5.62.6-2.54.28-5.07.59-7.61.87l-7.43.78c-2.54.28-5.07.59-7.61.87s-5,.51-7.43.78-5.07.59-7.61.87c-1.9.21-3.81.38-5.71.59-2.54.28-5.07.6-7.61.87s-4.9.5-7.35.77c-2.62.28-5.25.59-7.87.89l-7.26.79-7.69.86-5.71.64-7.51.82L84.89,30c-2.54.28-5.08.53-7.62.83a25.71,25.71,0,0,0-4.66.73A24.53,24.53,0,0,0,60.85,39.9a54.51,54.51,0,0,0-3.94,5.45,43.61,43.61,0,0,0-5.25,13.07c-.47,2.44-.81,4.38-1,6.83a49.33,49.33,0,0,0-.39,6.6C50.32,75,57.7,310.77,57.62,310.77Z" transform="translate(-6.57)"/></svg>